inDegrees=yes
name=ik_S47_A10_T02
DataType=double
version=3
OpenSimVersion=4.3-2021-08-27-4bc7ad9
endheader
time	pelvis_tilt	pelvis_list	pelvis_rotation	pelvis_tx	pelvis_ty	pelvis_tz	hip_flexion_r	hip_adduction_r	hip_rotation_r	knee_angle_r	knee_angle_r_beta	ankle_angle_r	subtalar_angle_r	mtp_angle_r	hip_flexion_l	hip_adduction_l	hip_rotation_l	knee_angle_l	knee_angle_l_beta	ankle_angle_l	subtalar_angle_l	mtp_angle_l	lumbar_extension	lumbar_bending	lumbar_rotation	arm_flex_r	arm_add_r	arm_rot_r	elbow_flex_r	pro_sup_r	wrist_flex_r	wrist_dev_r	arm_flex_l	arm_add_l	arm_rot_l	elbow_flex_l	pro_sup_l	wrist_flex_l	wrist_dev_l
14.49999999999978	-4.032146478439848	-1.381358085774289	26.68593678774828	0	0.9399999999999999	0	44.88891790788138	-9.999994618461246	-9.999751576424305	54.73353477343544	0.9552803930512571	0	0	0	44.88891790788138	-9.999994618461246	-9.999751576424305	54.73353477343544	0.9552803930512571	0	0	0	-3.897742392713761	-0.9776320962210668	4.148272809878102	26.1489611373959	7.699659409415156	-5.668195242133319	-0.8464642108099029	65.56077361160953	0	0	26.45465156523206	8.464152539150868	5.94912118546576	-1.454167853253192	76.52119762826229	0	0
14.51999999999978	-4.045033683466694	-1.400879088323052	26.69773867213662	0	0.9399999999999999	0	44.88895812606776	-9.999994625243154	-9.999751777792079	54.7335994396566	0.9552815216897311	0	0	0	44.88895812606776	-9.999994625243154	-9.999751777792079	54.7335994396566	0.9552815216897311	0	0	0	-3.917505040869331	-0.9910674839756553	4.178705046768907	25.85081130768821	7.72910032127796	-5.814636180488994	-0.9833118770149488	65.31380770031809	0	0	26.17384164205237	8.467426461601544	5.878477019172081	-1.829213968343132	76.93107056200655	0	0
14.53999999999978	-4.082984784322857	-1.447141948568687	26.73450928432469	0	0.9399999999999999	0	44.88898713361095	-9.999994630123176	-9.999751922822917	54.73364615364795	0.9552823370026868	0	0	0	44.88898713361095	-9.999994630123176	-9.999751922822917	54.73364615364795	0.9552823370026868	0	0	0	-3.970754330261947	-1.020430989997527	4.242148424867345	25.66990414490247	7.718310631125712	-6.053500576447995	-1.141721582947997	65.50160966628599	0	0	25.94817676289766	8.464158858485694	6.03639337471944	-2.14689418545188	77.37175845847506	0	0
14.55999999999978	-4.124636282122036	-1.480758298949683	26.69550338900463	0	0.9399999999999999	0	44.88901527071105	-9.999994634859192	-9.999752063547472	54.73369144818319	0.9552831275414599	0	0	0	44.88901527071105	-9.999994634859192	-9.999752063547472	54.73369144818319	0.9552831275414599	0	0	0	-4.022182498223302	-1.03454545133311	4.280157894908398	25.50455142941098	7.719123628190295	-6.046122125524729	-1.317786537911644	65.63154404029606	0	0	25.6765731192093	8.462938390117477	6.387412742979651	-2.326418400486689	77.53512443380897	0	0
14.57999999999978	-4.185388794375937	-1.563450505189422	26.60372972172173	0	0.9399999999999999	0	44.88904005804744	-9.99999463902798	-9.999752187461127	54.73373136619847	0.9552838242422574	0	0	0	44.88904005804744	-9.99999463902798	-9.999752187461127	54.73373136619847	0.9552838242422574	0	0	0	-4.113593358469565	-1.080605973836213	4.275612895471568	25.38871394244127	7.819490159779597	-5.931492901730599	-1.430607468453357	65.6732646519271	0	0	25.46536297079209	8.416239510941649	6.733212107156412	-2.463139728370758	77.45858508402824	0	0
14.59999999999978	-4.192104815030532	-1.58174671267792	26.56233762807837	0	0.9399999999999999	0	44.88906639744116	-9.999994643452609	-9.99975231904668	54.73377380611873	0.9552845649586003	0	0	0	44.88906639744116	-9.999994643452609	-9.99975231904668	54.73377380611873	0.9552845649586003	0	0	0	-4.127250205921372	-1.095504191099868	4.295477703188382	25.18238255691789	7.840248227316932	-5.91078327076424	-1.439632197128822	65.75501390689782	0	-5.38806921148701e-36	25.21319718832152	8.434856780408118	6.989009946619953	-2.666161979579559	77.34355590454635	0	-5.38806921148701e-36
14.61999999999978	-4.202318617307811	-1.625379611304032	26.52318412133484	0	0.9399999999999999	0	44.88909880577314	-9.999994648898424	-9.999752481010095	54.73382596874888	0.9552854753682429	0	0	0	44.88909880577314	-9.999994648898424	-9.999752481010095	54.73382596874888	0.9552854753682429	0	0	0	-4.156235699401459	-1.128874606260422	4.284951475776349	25.24556054565991	7.893818422970856	-5.910220779740047	-1.821343972178186	65.67701138039622	0	0	25.27158069884222	8.359972688702385	6.968611849125717	-3.004562198430689	77.5669490379619	0	0
14.63999999999978	-4.269468541797213	-1.712795300540648	26.41846342657398	0	0.9399999999999999	0	44.88912747763091	-9.999994653721902	-9.999752624414036	54.73387206004315	0.9552862798130844	0	0	0	44.88912747763091	-9.999994653721902	-9.999752624414036	54.73387206004315	0.9552862798130844	0	0	0	-4.255779251226545	-1.175202961947632	4.264662708441119	25.09603255530919	7.969257490880506	-5.825654146031078	-2.06005256232137	65.41826745481961	0	0	25.2391967234552	8.3349335737977	7.145651620459349	-2.977935686334058	77.68797929797576	0	0
14.65999999999978	-4.290427576861583	-1.742250723702672	26.3774878655112	0	0.9399999999999999	0	44.88917206102083	-9.999994661169735	-9.999752846402556	54.7339441473907	0.9552875379746483	0	0	0	44.88917206102083	-9.999994661169735	-9.999752846402556	54.7339441473907	0.9552875379746483	0	0	0	-4.288358635124037	-1.189676437448259	4.239998624092951	24.99984599482885	8.025525356797615	-5.631542722390744	-2.071846057541999	64.98278439178473	0	0	25.30402187006604	8.297964816701715	7.085488928600919	-3.098337057281255	77.87816456874224	0	0
14.67999999999978	-4.348112681284447	-1.817832759040723	26.21158053653073	0	0.9399999999999999	0	44.88921586557031	-9.999994668492791	-9.999753064652319	54.73401487295456	0.9552887723686029	0	0	0	44.88921586557031	-9.999994668492791	-9.999753064652319	54.73401487295456	0.9552887723686029	0	0	0	-4.37229444240735	-1.234824636935657	4.275053875405201	25.01341207146554	8.175662304948201	-5.24880783591435	-1.934400395491915	64.47263443656746	0	0	25.28312594830044	8.612988481664512	7.607881047649716	-2.802773537340439	76.68717899126744	0	0
14.69999999999978	-4.405640591049803	-1.898233926503311	26.03824005189756	0	0.9399999999999999	0	44.88926244110952	-9.999994676274477	-9.999753296653548	54.73409005641346	0.9552900845675039	0	0	0	44.88926244110952	-9.999994676274477	-9.999753296653548	54.73409005641346	0.9552900845675039	0	0	0	-4.458920211529279	-1.282975403883535	4.29278965479601	25.07410997503205	8.376991611944936	-4.798741378446009	-1.64771959659691	63.81129870611591	0	0	25.38063975600562	8.71743970027183	8.02002113204458	-2.616901371072537	76.12791720707283	0	0
14.71999999999978	-4.464565503611813	-1.953464988557371	25.90065369684295	0	0.9399999999999999	0	44.88929574660096	-9.99999468175054	-9.999753460821696	54.73414460003674	0.955291036533316	0	0	0	44.88929574660096	-9.99999468175054	-9.999753460821696	54.73414460003674	0.955291036533316	0	0	0	-4.536683148427164	-1.305891507480686	4.283239677111588	25.25911153335229	8.53032609228462	-4.451746307782043	-1.503711492409742	63.33667890852139	0	0	25.66644557587062	8.857472914950037	8.133505226140233	-2.359922299616903	75.49761818734683	0	0
14.73999999999977	-4.462213553657789	-1.969513746374061	25.87811102497356	0	0.9399999999999999	0	44.88935159008606	-9.999994691071199	-9.999753738894414	54.73423467980219	0.9552926087218124	0	0	0	44.88935159008606	-9.999994691071199	-9.999753738894414	54.73423467980219	0.9552926087218124	0	0	0	-4.542483250492457	-1.318632490970154	4.258675847109371	25.42010641921314	8.688172023083743	-4.199611042776615	-1.134406972800219	62.49096248084232	0	0	25.93224979068348	9.032356574700382	8.193740394459152	-2.07694092599946	74.92777787004165	0	0
14.75999999999977	-4.513101425389004	-2.014250591544055	25.78224417242194	0	0.9399999999999999	0	44.88942825378754	-9.999994703873892	-9.999754120879299	54.73435812173829	0.9552947631900325	0	0	0	44.88942825378754	-9.999994703873892	-9.999754120879299	54.73435812173829	0.9552947631900325	0	0	0	-4.610139740042692	-1.330707801880259	4.199153987824529	25.85117595811574	8.935597932646026	-3.793327508352041	-0.6517259624178362	61.64254827098824	0	0	26.45192384334091	9.180505892126915	8.291469794697354	-1.621788354993165	73.91957761389348	0	0
